<?xml version="1.0" encoding="UTF-8"?>
<svg width="16px" height="16px" viewBox="0 0 16 16" version="1.1" xmlns="http://www.w3.org/2000/svg" xmlns:xlink="http://www.w3.org/1999/xlink">
    <title>file_type_claude</title>
    <g id="file_type_claude" stroke="none" fill="none" fill-rule="evenodd">
        <g id="Graphic" fill="#D97757">
            <path d="M3.136,10.64 L6.288,8.88 L6.336,8.72 L6.288,8.64 L6.128,8.64 L5.6,8.608 L3.808,8.56 L2.24,8.48 L0.72,8.4 L0.336,8.32 L0,7.84 L0.032,7.6 L0.352,7.392 L0.816,7.424 L1.824,7.504 L3.344,7.6 L4.448,7.664 L6.08,7.856 L6.336,7.856 L6.368,7.744 L6.288,7.68 L6.224,7.616 L4.64,6.56 L2.944,5.44 L2.048,4.784 L1.568,4.464 L1.328,4.144 L1.232,3.472 L1.664,2.992 L2.256,3.04 L2.4,3.072 L2.992,3.536 L4.272,4.512 L5.92,5.76 L6.16,5.952 L6.256,5.888 L6.272,5.84 L6.16,5.664 L5.28,4 L4.32,2.336 L3.888,1.648 L3.776,1.232 C3.728,1.072 3.712,0.912 3.712,0.752 L4.192,0.08 L4.48,0 L5.152,0.096 L5.408,0.32 L5.824,1.28 L6.48,2.768 L7.52,4.784 L7.84,5.392 L8,5.936 L8.048,6.096 L8.16,6.096 L8.16,6.016 L8.24,4.864 L8.4,3.472 L8.56,1.68 L8.608,1.168 L8.864,0.56 L9.344,0.24 L9.76,0.416 L10.08,0.88 L10.032,1.168 L9.856,2.4 L9.44,4.336 L9.2,5.648 L9.344,5.648 L9.504,5.472 L10.16,4.608 L11.264,3.232 L11.744,2.672 L12.32,2.08 L12.688,1.792 L13.376,1.792 L13.872,2.544 L13.648,3.328 L12.944,4.224 L12.352,4.976 L11.504,6.112 L10.992,7.024 L11.04,7.088 L11.152,7.088 L13.072,6.672 L14.096,6.496 L15.312,6.288 L15.872,6.544 L15.936,6.8 L15.712,7.344 L14.4,7.664 L12.864,7.984 L10.576,8.512 L10.544,8.528 L10.576,8.576 L11.6,8.672 L12.048,8.704 L13.136,8.704 L15.152,8.864 L15.68,9.184 L15.984,9.616 L15.936,9.936 L15.12,10.352 L14.032,10.096 L11.472,9.488 L10.608,9.28 L10.48,9.28 L10.48,9.344 L11.216,10.064 L12.544,11.264 L14.24,12.816 L14.32,13.2 L14.112,13.52 L13.888,13.488 L12.416,12.368 L11.84,11.888 L10.56,10.8 L10.48,10.8 L10.48,10.912 L10.768,11.344 L12.336,13.696 L12.416,14.416 L12.304,14.64 L11.888,14.8 L11.456,14.704 L10.528,13.424 L9.568,11.984 L8.816,10.672 L8.736,10.736 L8.272,15.568 L8.064,15.808 L7.584,16 L7.184,15.68 L6.96,15.2 L7.184,14.208 L7.44,12.928 L7.648,11.904 L7.84,10.64 L7.952,10.224 L7.952,10.192 L7.84,10.192 L6.88,11.52 L5.44,13.488 L4.288,14.704 L4.016,14.816 L3.536,14.576 L3.584,14.128 L3.84,13.76 L5.44,11.712 L6.4,10.448 L7.04,9.712 L7.024,9.632 L6.976,9.632 L2.752,12.384 L2,12.48 L1.68,12.16 L1.712,11.68 L1.872,11.52 L3.152,10.64 L3.136,10.64 Z" id="Path"></path>
        </g>
    </g>
</svg>