<?xml version="1.0" encoding="UTF-8"?>
<svg width="16px" height="16px" viewBox="0 0 16 16" version="1.1" xmlns="http://www.w3.org/2000/svg" xmlns:xlink="http://www.w3.org/1999/xlink">
    <title>file_type_accdb</title>
    < id="file_type_accdb">
        <path d="m9.88 0.968q1 0 2.01 0.11 0.176 0.0219 0.509 0.0694 0.334 0.0475 0.736 0.132 0.403 0.0844 0.824 0.205 0.421 0.121 0.766 0.286 0.344 0.165 0.564 0.374t0.22 0.465v10.8q0 0.256-0.22 0.465-0.219 0.209-0.564 0.374-0.344 0.164-0.766 0.286-0.421 0.121-0.824 0.205-0.402 0.0844-0.736 0.136-0.333 0.0512-0.509 0.0656-1 0.11-2.01 0.11-1.01 0-2.01-0.11-0.176-0.0144-0.509-0.0656-0.334-0.0512-0.736-0.136-0.403-0.0844-0.824-0.205-0.421-0.121-0.766-0.286-0.344-0.165-0.564-0.374t-0.22-0.465v-1.64h-3.13q-0.256 0-0.439-0.183t-0.183-0.439v-6.26q0-0.256 0.183-0.439t0.439-0.183h3.13v-1.64q0-0.256 0.22-0.465 0.219-0.209 0.564-0.374 0.344-0.164 0.766-0.286 0.421-0.121 0.824-0.205 0.402-0.0844 0.736-0.131 0.333-0.0481 0.509-0.07 0.996-0.11 2.01-0.11zm0 0.938q-0.476 0-1.06 0.0331-0.586 0.0325-1.19 0.113-0.604 0.0812-1.18 0.216-0.571 0.136-1.01 0.341 0.454 0.212 1.02 0.348 0.568 0.135 1.16 0.212 0.598 0.0769 1.18 0.109 0.582 0.0331 1.07 0.0331t1.07-0.0331q0.582-0.0325 1.18-0.11 0.597-0.0769 1.16-0.212 0.568-0.135 1.02-0.348-0.44-0.205-1.01-0.341t-1.18-0.216q-0.604-0.0806-1.19-0.113-0.586-0.0331-1.06-0.0331zm-6.42 7.43h1.59l0.373 1.12h1.25l-1.79-4.92h-1.22l-1.82 4.92h1.24zm11.1 3.9v-2.22q-0.483 0.212-1.08 0.351-0.597 0.139-1.23 0.223-0.63 0.0844-1.25 0.121-0.615 0.0369-1.14 0.0369-0.534 0-1.07-0.0331-0.531-0.0325-1.06-0.0912-0.169 0.124-0.374 0.124h-2.19v1.49q0.212 0.169 0.571 0.3 0.359 0.132 0.795 0.228 0.436 0.095 0.912 0.158 0.476 0.0625 0.926 0.102 0.45 0.04 0.839 0.055 0.388 0.0144 0.644 0.0144 0.256 0 0.644-0.0144 0.388-0.015 0.839-0.055 0.45-0.0406 0.926-0.102 0.476-0.0625 0.912-0.158 0.436-0.0956 0.794-0.228 0.359-0.131 0.572-0.3zm0-3.27v-2.7q-0.483 0.212-1.08 0.352-0.597 0.139-1.23 0.223-0.63 0.0844-1.25 0.121-0.615 0.0369-1.14 0.0369-0.469 0-0.938-0.0256t-0.938-0.0694v2.81q0.469 0.0512 0.938 0.0731 0.469 0.0219 0.938 0.0219 0.271 0 0.659-0.0144 0.388-0.015 0.831-0.055 0.443-0.0406 0.912-0.102 0.469-0.0625 0.901-0.158 0.432-0.0956 0.795-0.22 0.362-0.125 0.589-0.293zm0-3.75v-2.7q-0.483 0.212-1.08 0.352-0.597 0.139-1.23 0.223-0.63 0.0844-1.25 0.121-0.615 0.0369-1.14 0.0369t-1.14-0.0369q-0.616-0.0362-1.25-0.121-0.629-0.0844-1.23-0.223-0.598-0.139-1.08-0.352v0.732h2.19q0.256 0 0.439 0.183t0.183 0.439v2.1q0.469 0.0512 0.938 0.0731t0.938 0.0219q0.271 0 0.659-0.0144 0.388-0.015 0.831-0.055 0.443-0.0406 0.912-0.102 0.469-0.0625 0.901-0.158 0.432-0.0956 0.791-0.22 0.359-0.125 0.593-0.293zm-10.8 2.17 0.505-1.53 0.491 1.53z" style="stroke-width:.625" fill="#A4373A"/>
    </g>
</svg>
